<?xml version="1.0" encoding="UTF-8"?>
<svg version="1.1" xmlns="http://www.w3.org/2000/svg" width="220" height="219">
<path d="M0 0 C72.6 0 145.2 0 220 0 C220 72.27 220 144.54 220 219 C147.4 219 74.8 219 0 219 C0 146.73 0 74.46 0 0 Z " fill="#FEFDFD" transform="translate(0,0)"/>
<path d="M0 0 C1.90918642 -0.09497877 3.81974593 -0.16260703 5.73046875 -0.21875 C7.32604614 -0.2796582 7.32604614 -0.2796582 8.95385742 -0.34179688 C13.48096379 0.1661737 15.35346762 2.37554931 18.21484375 5.73046875 C18.80394531 6.47941406 19.39304687 7.22835937 20 8 C21.1200227 9.27522215 22.24497248 10.54613506 23.375 11.8125 C23.93058594 12.46992187 24.48617187 13.12734375 25.05859375 13.8046875 C26.53139879 15.47011292 28.07998781 17.06888661 29.66015625 18.6328125 C37.65087405 26.70220122 37.65087405 26.70220122 37.625 32.1875 C37.41875 33.445625 37.2125 34.70375 37 36 C33.9328852 36.43047225 31.96855744 36.66084494 29 36 C26.18288658 33.72893499 24.19270918 30.85965823 22 28 C20.36839855 26.15398939 18.72235238 24.32065058 17.0625 22.5 C15.0515625 20.2725 15.0515625 20.2725 13 18 C12.67 23.94 12.34 29.88 12 36 C7.01953125 31.80078125 7.01953125 31.80078125 5 30 C4.1028125 29.3709375 3.205625 28.741875 2.28125 28.09375 C-1.35109458 23.16769365 -0.52882189 18.12803179 -0.3125 12.1875 C-0.28994141 11.01767578 -0.26738281 9.84785156 -0.24414062 8.64257812 C-0.18532091 5.76041231 -0.10317141 2.88086319 0 0 Z " fill="#DB271E" transform="translate(92,49)"/>
<path d="M0 0 C1.07483643 0.03609375 2.14967285 0.0721875 3.25708008 0.109375 C4.07329834 0.15578125 4.8895166 0.2021875 5.73046875 0.25 C5.93484402 4.43677342 6.05846372 8.6222565 6.16796875 12.8125 C6.22662109 13.99392578 6.28527344 15.17535156 6.34570312 16.39257812 C6.51467306 25.01004468 6.51467306 25.01004468 4.21142578 28.65185547 C2.46676823 30.44717458 0.85810898 31.93346759 -1.26953125 33.25 C-1.92953125 33.25 -2.58953125 33.25 -3.26953125 33.25 C-3.26953125 33.91 -3.26953125 34.57 -3.26953125 35.25 C-3.92953125 35.25 -4.58953125 35.25 -5.26953125 35.25 C-5.59953125 29.64 -5.92953125 24.03 -6.26953125 18.25 C-11.36072191 23.26286465 -16.30706237 28.2937863 -20.95703125 33.71875 C-21.70078588 34.58646374 -22.46141675 35.4418855 -23.26953125 36.25 C-25.60250558 36.29092937 -27.9365835 36.29241723 -30.26953125 36.25 C-30.85883132 32.76512674 -30.97918926 29.72537998 -30.26953125 26.25 C-27.70055462 22.76190062 -24.5082924 20.10467729 -21.26953125 17.25 C-20.05595864 15.94035289 -18.86635109 14.60790704 -17.70703125 13.25 C-16.86011719 12.2909375 -16.86011719 12.2909375 -15.99609375 11.3125 C-14.20153446 9.22168421 -14.20153446 9.22168421 -12.48046875 6.75 C-8.65297853 1.70968366 -6.51697204 -0.28431235 0 0 Z " fill="#186FBE" transform="translate(162.26953125,48.75)"/>
<path d="M0 0 C2.74896882 -0.44626117 4.33693219 -0.63125977 7 0 C10.03399219 2.23822799 12.40733761 4.97663897 14.875 7.8125 C15.55046875 8.55048828 16.2259375 9.28847656 16.921875 10.04882812 C21.83216194 15.49648583 21.83216194 15.49648583 23 19 C23.66 19 24.32 19 25 19 C25 13.06 25 7.12 25 1 C30.078125 5.296875 30.078125 5.296875 32 7 C33.03737305 7.86141602 33.03737305 7.86141602 34.09570312 8.74023438 C36.53239339 11.63177349 36.46692333 13.12075686 36.390625 16.859375 C36.37773437 17.97441406 36.36484375 19.08945313 36.3515625 20.23828125 C36.31804687 21.39714844 36.28453125 22.55601563 36.25 23.75 C36.23195312 24.92433594 36.21390625 26.09867188 36.1953125 27.30859375 C36.1481912 30.2065534 36.08241305 33.10286418 36 36 C25.17292452 36.80152289 25.17292452 36.80152289 20.87890625 33.8671875 C20.11449219 32.87976563 19.35007813 31.89234375 18.5625 30.875 C17.67483077 29.76845571 16.78406339 28.66439145 15.890625 27.5625 C15.43236328 26.97984375 14.97410156 26.3971875 14.50195312 25.796875 C12.90605968 23.88761366 11.20656533 22.17087336 9.421875 20.4375 C0.43046019 11.6316491 0.43046019 11.6316491 -0.8203125 6.890625 C-0.81339618 4.44224642 -0.63581469 2.35849211 0 0 Z " fill="#EB9A2F" transform="translate(132,89)"/>
<path d="M0 0 C0.5775 0.45375 1.155 0.9075 1.75 1.375 C3.88905498 3.02391108 3.88905498 3.02391108 6.0546875 3.97265625 C8.32274301 5.1704446 9.49318757 6.46538498 11.125 8.4375 C13.22673837 10.96508079 15.34012619 13.33764352 17.67578125 15.65625 C24.70116252 22.73131572 24.70116252 22.73131572 25.63671875 26.703125 C25.625 29.1875 25.625 29.1875 25 33 C21.93522829 33.4301434 19.96724467 33.65647006 17 33 C14.94359025 31.35025106 13.52958844 29.56109628 11.94140625 27.45703125 C10.00477983 24.88019047 10.00477983 24.88019047 7.33984375 22.51171875 C0.30597944 15.83399947 0.30597944 15.83399947 -0.63671875 10.18359375 C-0.6262708 6.73228653 -0.44935049 3.42005648 0 0 Z " fill="#C12B22" transform="translate(104,52)"/>
<path d="M0 0 C1.65322266 0.01740234 1.65322266 0.01740234 3.33984375 0.03515625 C4.99693359 0.04869141 4.99693359 0.04869141 6.6875 0.0625 C7.54214844 0.07410156 8.39679688 0.08570313 9.27734375 0.09765625 C9.48171902 4.28442967 9.60533872 8.46991275 9.71484375 12.66015625 C9.77349609 13.84158203 9.83214844 15.02300781 9.89257812 16.24023438 C10.06154806 24.85770093 10.06154806 24.85770093 7.75830078 28.49951172 C6.01364323 30.29483083 4.40498398 31.78112384 2.27734375 33.09765625 C1.61734375 33.09765625 0.95734375 33.09765625 0.27734375 33.09765625 C0.27734375 33.75765625 0.27734375 34.41765625 0.27734375 35.09765625 C-0.38265625 35.09765625 -1.04265625 35.09765625 -1.72265625 35.09765625 C-1.72265625 24.20765625 -1.72265625 13.31765625 -1.72265625 2.09765625 C-2.38265625 1.76765625 -3.04265625 1.43765625 -3.72265625 1.09765625 C-2.72265625 0.09765625 -2.72265625 0.09765625 0 0 Z " fill="#1B8BBF" transform="translate(158.72265625,48.90234375)"/>
<path d="M0 0 C1.08518111 0.91447846 2.16804738 1.83170407 3.25 2.75 C3.85328125 3.26046875 4.4565625 3.7709375 5.078125 4.296875 C6.02945313 5.13992187 6.02945313 5.13992187 7 6 C7.69158203 6.57427734 8.38316406 7.14855469 9.09570312 7.74023438 C11.53239339 10.63177349 11.46692333 12.12075686 11.390625 15.859375 C11.37773437 16.97441406 11.36484375 18.08945313 11.3515625 19.23828125 C11.31804687 20.39714844 11.28453125 21.55601563 11.25 22.75 C11.23195312 23.92433594 11.21390625 25.09867188 11.1953125 26.30859375 C11.14819894 29.20607757 11.07645666 32.10314195 11 35 C7.04 35 3.08 35 -1 35 C-1.33 34.34 -1.66 33.68 -2 33 C-1.34 33 -0.68 33 0 33 C-0.08378906 32.12601563 -0.16757813 31.25203125 -0.25390625 30.3515625 C-1.10033826 20.13009243 -0.76093781 10.21998018 0 0 Z " fill="#EBB331" transform="translate(157,90)"/>
<path d="M0 0 C1.32 0 2.64 0 4 0 C5.32 3.3 6.64 6.6 8 10 C9.53521956 7.69717067 10.58357909 5.82137765 11.625 3.3125 C12.07875 2.219375 12.5325 1.12625 13 0 C13.99 0 14.98 0 16 0 C16 5.61 16 11.22 16 17 C15.67 17 15.34 17 15 17 C15 12.71 15 8.42 15 4 C14.34 4 13.68 4 13 4 C12.86722656 4.62648438 12.73445313 5.25296875 12.59765625 5.8984375 C12.33275391 7.12433594 12.33275391 7.12433594 12.0625 8.375 C11.88847656 9.18710938 11.71445313 9.99921875 11.53515625 10.8359375 C11 13 11 13 10 15 C9.01 15 8.02 15 7 15 C6.01 12.69 5.02 10.38 4 8 C3.67 10.97 3.34 13.94 3 17 C2.01 17 1.02 17 0 17 C0 11.39 0 5.78 0 0 Z " fill="#797979" transform="translate(56,118)"/>
<path d="M0 0 C1.21816406 0.03480469 1.21816406 0.03480469 2.4609375 0.0703125 C3.68683594 0.09738281 3.68683594 0.09738281 4.9375 0.125 C5.87722656 0.15980469 5.87722656 0.15980469 6.8359375 0.1953125 C6.0859375 6.9453125 6.0859375 6.9453125 3.8359375 9.1953125 C1.2109375 9.3203125 1.2109375 9.3203125 -1.1640625 9.1953125 C-1.1640625 9.8553125 -1.1640625 10.5153125 -1.1640625 11.1953125 C1.1459375 11.5253125 3.4559375 11.8553125 5.8359375 12.1953125 C5.8786585 13.86143155 5.87657582 15.52914135 5.8359375 17.1953125 C4.8359375 18.1953125 4.8359375 18.1953125 2.76953125 18.29296875 C1.94582031 18.28136719 1.12210937 18.26976562 0.2734375 18.2578125 C-0.55285156 18.24878906 -1.37914063 18.23976562 -2.23046875 18.23046875 C-3.18759766 18.21306641 -3.18759766 18.21306641 -4.1640625 18.1953125 C-4.1640625 17.5353125 -4.1640625 16.8753125 -4.1640625 16.1953125 C-1.5240625 16.1953125 1.1159375 16.1953125 3.8359375 16.1953125 C3.8359375 15.2053125 3.8359375 14.2153125 3.8359375 13.1953125 C1.8559375 13.1953125 -0.1240625 13.1953125 -2.1640625 13.1953125 C-3.57099208 9.41418926 -4.61437116 6.24809046 -4.1640625 2.1953125 C-2.1640625 0.1953125 -2.1640625 0.1953125 0 0 Z " fill="#686868" transform="translate(92.1640625,121.8046875)"/>
<path d="M0 0 C0.66 0 1.32 0 2 0 C2 5.61 2 11.22 2 17 C-0.64 17 -3.28 17 -6 17 C-7 16 -7 16 -7.1328125 13.75 C-7.13023438 12.8425 -7.12765625 11.935 -7.125 11 C-7.12757812 10.0925 -7.13015625 9.185 -7.1328125 8.25 C-7 6 -7 6 -6 5 C-4.00041636 4.95919217 -1.99954746 4.95745644 0 5 C0 3.35 0 1.7 0 0 Z " fill="#5D5D5D" transform="translate(90,92)"/>
<path d="M0 0 C1.90722656 0.27514648 1.90722656 0.27514648 4 1 C5.12684953 3.73112741 5.98163314 6.2330736 6.75 9.0625 C6.97042969 9.82111328 7.19085938 10.57972656 7.41796875 11.36132812 C7.96048899 13.23656113 8.48223106 15.11778259 9 17 C8.01 17 7.02 17 6 17 C5.67 16.01 5.34 15.02 5 14 C2.69 13.67 0.38 13.34 -2 13 C-2.33 14.32 -2.66 15.64 -3 17 C-3.66 17 -4.32 17 -5 17 C-3.83348574 11.07136283 -2.24480642 5.61201606 0 0 Z " fill="#707070" transform="translate(58,92)"/>
<path d="M0 0 C3.625 0.375 3.625 0.375 7 1 C7.33 3.31 7.66 5.62 8 8 C5.69 8 3.38 8 1 8 C1 8.99 1 9.98 1 11 C2.98 11 4.96 11 7 11 C7 11.66 7 12.32 7 13 C3.625 13.125 3.625 13.125 0 13 C-2 11 -2 11 -2.265625 8.90625 C-2.25789063 7.71515625 -2.25789063 7.71515625 -2.25 6.5 C-2.25515625 5.7059375 -2.2603125 4.911875 -2.265625 4.09375 C-2 2 -2 2 0 0 Z " fill="#6E6E6E" transform="translate(78,122)"/>
<path d="M0 0 C12 0 12 0 15.25 3 C15.8275 3.99 16.405 4.98 17 6 C15.66666667 6 14.33333333 6 13 6 C12.67 15.9 12.34 25.8 12 36 C11.67 36 11.34 36 11 36 C10.2507869 24.5428027 9.76837814 13.44460927 11 2 C8.03 2 5.06 2 2 2 C1.67 9.59 1.34 17.18 1 25 C0.67 25 0.34 25 0 25 C0 16.75 0 8.5 0 0 Z " fill="#D6524B" transform="translate(92,49)"/>
<path d="M0 0 C6.15234375 -0.09765625 6.15234375 -0.09765625 8 0 C9 1 9 1 9.09765625 3.50390625 C9.08605469 4.51324219 9.07445313 5.52257812 9.0625 6.5625 C9.05347656 7.57441406 9.04445313 8.58632812 9.03515625 9.62890625 C9.02355469 10.41136719 9.01195313 11.19382813 9 12 C6.03 12 3.06 12 0 12 C0 10.02 0 8.04 0 6 C1.98 5.67 3.96 5.34 6 5 C6 4.01 6 3.02 6 2 C4.02 2 2.04 2 0 2 C0 1.34 0 0.68 0 0 Z " fill="#696969" transform="translate(91,148)"/>
<path d="M0 0 C5.75 -0.125 5.75 -0.125 8 1 C8 4.96 8 8.92 8 13 C1.84765625 13.09765625 1.84765625 13.09765625 0 13 C-1 12 -1 12 -1.125 9.5 C-1 7 -1 7 0 6 C1.99958364 5.95919217 4.00045254 5.95745644 6 6 C6 4.68 6 3.36 6 2 C4.02 2 2.04 2 0 2 C0 1.34 0 0.68 0 0 Z " fill="#7F7F7F" transform="translate(102,122)"/>
<path d="M0 0 C6.15234375 -0.09765625 6.15234375 -0.09765625 8 0 C9 1 9 1 9.09765625 3.50390625 C9.08605469 4.51324219 9.07445313 5.52257812 9.0625 6.5625 C9.05347656 7.57441406 9.04445313 8.58632812 9.03515625 9.62890625 C9.02355469 10.41136719 9.01195313 11.19382813 9 12 C6.03 12 3.06 12 0 12 C0 10.02 0 8.04 0 6 C2.31 6 4.62 6 7 6 C7 4.68 7 3.36 7 2 C4.69 2 2.38 2 0 2 C0 1.34 0 0.68 0 0 Z " fill="#606060" transform="translate(115,148)"/>
<path d="M0 0 C6.15234375 -0.09765625 6.15234375 -0.09765625 8 0 C9 1 9 1 9.09765625 3.50390625 C9.08605469 4.51324219 9.07445313 5.52257812 9.0625 6.5625 C9.05347656 7.57441406 9.04445313 8.58632812 9.03515625 9.62890625 C9.02355469 10.41136719 9.01195313 11.19382812 9 12 C6.03 12 3.06 12 0 12 C0 10.02 0 8.04 0 6 C2.31 6 4.62 6 7 6 C7 4.68 7 3.36 7 2 C4.69 2 2.38 2 0 2 C0 1.34 0 0.68 0 0 Z " fill="#606060" transform="translate(115,97)"/>
<path d="M0 0 C0.66 0 1.32 0 2 0 C2 1.98 2 3.96 2 6 C3.134375 5.814375 4.26875 5.62875 5.4375 5.4375 C7.2009375 5.2209375 7.2009375 5.2209375 9 5 C10 6 10 6 10.09765625 8.72265625 C10.08605469 9.82480469 10.07445313 10.92695312 10.0625 12.0625 C10.05347656 13.16722656 10.04445313 14.27195313 10.03515625 15.41015625 C10.02355469 16.26480469 10.01195313 17.11945313 10 18 C9.34 18 8.68 18 8 18 C8 14.37 8 10.74 8 7 C6.02 7.33 4.04 7.66 2 8 C2 11.3 2 14.6 2 18 C1.34 18 0.68 18 0 18 C0 12.06 0 6.12 0 0 Z " fill="#606060" transform="translate(114,117)"/>
<path d="M0 0 C0.99 0.33 1.98 0.66 3 1 C4.1875 4.0625 4.1875 4.0625 5 7 C6.20628008 4.66785852 7.1654738 2.50357861 8 0 C8.99 0 9.98 0 11 0 C9.33846988 5.85659906 7.52958084 11.4590134 5 17 C4.34 16.67 3.68 16.34 3 16 C2.73281147 14.09628174 2.47541239 12.19028272 2.28515625 10.27734375 C1.84451085 6.75821681 0.91691607 3.42315331 0 0 Z " fill="#676767" transform="translate(102,148)"/>
<path d="M0 0 C0.33 0 0.66 0 1 0 C1.33 7.92 1.66 15.84 2 24 C2.99 24.33 3.98 24.66 5 25 C5.33 25.99 5.66 26.98 6 28 C6.99 28.33 7.98 28.66 9 29 C9 25.04 9 21.08 9 17 C9.33 17 9.66 17 10 17 C10 22.61 10 28.22 10 34 C4.82421875 29.60546875 4.82421875 29.60546875 3 28 C2.47341797 27.59072266 1.94683594 27.18144531 1.40429688 26.75976562 C-0.60441363 24.24259154 -0.34150555 22.42553142 -0.29296875 19.23828125 C-0.28330078 18.12001953 -0.27363281 17.00175781 -0.26367188 15.84960938 C-0.23853516 14.68236328 -0.21339844 13.51511719 -0.1875 12.3125 C-0.17396484 11.13365234 -0.16042969 9.95480469 -0.14648438 8.74023438 C-0.11109326 5.82636589 -0.06171809 2.91341055 0 0 Z " fill="#C3261E" transform="translate(93,50)"/>
<path d="M0 0 C1.23556641 0.01740234 1.23556641 0.01740234 2.49609375 0.03515625 C3.32238281 0.04417969 4.14867188 0.05320312 5 0.0625 C5.63808594 0.07410156 6.27617188 0.08570312 6.93359375 0.09765625 C6.60359375 2.40765625 6.27359375 4.71765625 5.93359375 7.09765625 C3.29359375 7.09765625 0.65359375 7.09765625 -2.06640625 7.09765625 C-2.44773924 5.10625065 -2.77966207 3.10486548 -3.06640625 1.09765625 C-2.06640625 0.09765625 -2.06640625 0.09765625 0 0 Z " fill="#717171" transform="translate(92.06640625,121.90234375)"/>
<path d="M0 0 C2.97 0 5.94 0 9 0 C9 3.96 9 7.92 9 12 C8.34 12 7.68 12 7 12 C7 8.7 7 5.4 7 2 C5.68 2.33 4.36 2.66 3 3 C2.67 5.97 2.34 8.94 2 12 C1.34 12 0.68 12 0 12 C0 8.04 0 4.08 0 0 Z " fill="#5E5E5E" transform="translate(70,97)"/>
<path d="M0 0 C0.66 0 1.32 0 2 0 C2 6.6 2 13.2 2 20 C0.02 20.99 0.02 20.99 -2 22 C-1.505 20.515 -1.505 20.515 -1 19 C-0.85426942 17.52034074 -0.75336732 16.03596157 -0.68359375 14.55078125 C-0.64169922 13.70322266 -0.59980469 12.85566406 -0.55664062 11.98242188 C-0.49766602 10.66081055 -0.49766602 10.66081055 -0.4375 9.3125 C-0.39431641 8.41982422 -0.35113281 7.52714844 -0.30664062 6.60742188 C-0.20064647 4.40509892 -0.09857949 2.20266527 0 0 Z " fill="#606060" transform="translate(85,143)"/>
<path d="M0 0 C1.65 0 3.3 0 5 0 C5 2.64 5 5.28 5 8 C3.35 8.33 1.7 8.66 0 9 C0 6.03 0 3.06 0 0 Z " fill="#F5F5F5" transform="translate(85,99)"/>
<path d="M0 0 C0.99 0.33 1.98 0.66 3 1 C2.67 6.94 2.34 12.88 2 19 C1.34 19 0.68 19 0 19 C-1.625 16.5 -1.625 16.5 -3 14 C-2.34 14 -1.68 14 -1 14 C-0.67 9.38 -0.34 4.76 0 0 Z " fill="#FEEEBB" transform="translate(155,89)"/>
<path d="M0 0 C0.33 6.27 0.66 12.54 1 19 C0.01 19 -0.98 19 -2 19 C-2.04898438 18.00097656 -2.09796875 17.00195312 -2.1484375 15.97265625 C-2.22320312 14.68230469 -2.29796875 13.39195313 -2.375 12.0625 C-2.44460937 10.77472656 -2.51421875 9.48695312 -2.5859375 8.16015625 C-2.72257813 7.11730469 -2.85921875 6.07445313 -3 5 C-3.66 4.67 -4.32 4.34 -5 4 C-1.125 0 -1.125 0 0 0 Z " fill="#C1EBFB" transform="translate(157,66)"/>
<path d="M0 0 C0.66 0.33 1.32 0.66 2 1 C2 5.62 2 10.24 2 15 C1.01 15 0.02 15 -1 15 C-2.6875 12.5 -2.6875 12.5 -4 10 C-2.68 10.33 -1.36 10.66 0 11 C0 7.37 0 3.74 0 0 Z " fill="#E68C28" transform="translate(155,108)"/>
<path d="M0 0 C2 1 2 1 3.0703125 3.94140625 C3.59238281 5.73384766 3.59238281 5.73384766 4.125 7.5625 C4.65480469 9.35880859 4.65480469 9.35880859 5.1953125 11.19140625 C5.46085937 12.11824219 5.72640625 13.04507813 6 14 C5.01 14 4.02 14 3 14 C2.67 13.01 2.34 12.02 2 11 C-0.31 10.67 -2.62 10.34 -5 10 C-5 9.67 -5 9.34 -5 9 C-2.69 9 -0.38 9 2 9 C1.67 8.2575 1.34 7.515 1 6.75 C0 4 0 4 0 0 Z " fill="#5E5E5E" transform="translate(61,95)"/>
<path d="M0 0 C0.99 0 1.98 0 3 0 C3 5.61 3 11.22 3 17 C2.67 17 2.34 17 2 17 C2 12.71 2 8.42 2 4 C1.34 4 0.68 4 0 4 C-0.33 5.65 -0.66 7.3 -1 9 C-2.0326802 6.21176345 -2.04509293 5.1322726 -1.0625 2.25 C-0.711875 1.5075 -0.36125 0.765 0 0 Z " fill="#515151" transform="translate(69,118)"/>
<path d="M0 0 C1.66611905 -0.042721 3.33382885 -0.04063832 5 0 C6 1 6 1 6.09765625 3.72265625 C6.08605469 4.82480469 6.07445313 5.92695312 6.0625 7.0625 C6.05347656 8.16722656 6.04445313 9.27195313 6.03515625 10.41015625 C6.02355469 11.26480469 6.01195313 12.11945313 6 13 C5.34 13 4.68 13 4 13 C4 9.37 4 5.74 4 2 C2.68 2 1.36 2 0 2 C0 1.34 0 0.68 0 0 Z " fill="#6A6A6A" transform="translate(118,122)"/>
<path d="M0 0 C0.99 0.33 1.98 0.66 3 1 C2.46375 1.556875 1.9275 2.11375 1.375 2.6875 C0.92125 3.450625 0.4675 4.21375 0 5 C0.66096786 7.65245602 0.66096786 7.65245602 2 10 C2.33 10.66 2.66 11.32 3 12 C0 12 0 12 -1.75 10.3125 C-3 8 -3 8 -2.8125 5.4375 C-2 3 -2 3 0 0 Z " fill="#626262" transform="translate(109,97)"/>
<path d="M0 0 C1.65 0.33 3.3 0.66 5 1 C5 2.32 5 3.64 5 5 C3.02 5 1.04 5 -1 5 C-0.67 3.35 -0.34 1.7 0 0 Z " fill="#ECECEC" transform="translate(91,124)"/>
<path d="M0 0 C2.62386487 3.06117568 3 3.73173127 3 8 C1.35 8 -0.3 8 -2 8 C-1.125 2.25 -1.125 2.25 0 0 Z " fill="#ECECEC" transform="translate(59,95)"/>
<path d="M0 0 C0.99 0.33 1.98 0.66 3 1 C3.73046875 3.06640625 3.73046875 3.06640625 4.1875 5.5625 C4.34605469 6.38878906 4.50460938 7.21507812 4.66796875 8.06640625 C4.77753906 8.70449219 4.88710937 9.34257812 5 10 C4.01 10.495 4.01 10.495 3 11 C2.01 7.37 1.02 3.74 0 0 Z " fill="#6D6D6D" transform="translate(102,148)"/>
<path d="M0 0 C0.33 1.32 0.66 2.64 1 4 C-4.625 8 -4.625 8 -8 8 C-5.36 5.36 -2.72 2.72 0 0 Z " fill="#195CB1" transform="translate(155,51)"/>
<path d="M0 0 C1.65 0.33 3.3 0.66 5 1 C5 1.99 5 2.98 5 4 C3.02 4 1.04 4 -1 4 C-0.67 2.68 -0.34 1.36 0 0 Z " fill="#DADADA" transform="translate(79,124)"/>
<path d="M0 0 C1.65 0 3.3 0 5 0 C4.67 1.32 4.34 2.64 4 4 C2.68 4 1.36 4 0 4 C0 2.68 0 1.36 0 0 Z " fill="#D7D7D7" transform="translate(117,155)"/>
<path d="M0 0 C1.65 0 3.3 0 5 0 C4.67 1.32 4.34 2.64 4 4 C2.68 4 1.36 4 0 4 C0 2.68 0 1.36 0 0 Z " fill="#D8D8D8" transform="translate(93,155)"/>
<path d="M0 0 C1.65 0 3.3 0 5 0 C4.67 1.32 4.34 2.64 4 4 C2.68 4 1.36 4 0 4 C0 2.68 0 1.36 0 0 Z " fill="#D8D8D8" transform="translate(117,104)"/>
<path d="M0 0 C2.04119788 1.61594832 4.04072937 3.2856382 6 5 C6 5.66 6 6.32 6 7 C5.34 7 4.68 7 4 7 C4 6.34 4 5.68 4 5 C3.01 5.33 2.02 5.66 1 6 C0.67 4.02 0.34 2.04 0 0 Z " fill="#E39045" transform="translate(149,101)"/>
<path d="M0 0 C1.2065625 0.0309375 1.2065625 0.0309375 2.4375 0.0625 C1.4475 0.7225 0.4575 1.3825 -0.5625 2.0625 C-1.13998803 4.02611864 -1.13998803 4.02611864 -1.25 6.1875 C-1.353125 7.46625 -1.45625 8.745 -1.5625 10.0625 C-1.8925 10.0625 -2.2225 10.0625 -2.5625 10.0625 C-2.75662181 8.58418779 -2.94262131 7.10480684 -3.125 5.625 C-3.22941406 4.80128906 -3.33382812 3.97757812 -3.44140625 3.12890625 C-3.48136719 2.44699219 -3.52132812 1.76507813 -3.5625 1.0625 C-2.5625 0.0625 -2.5625 0.0625 0 0 Z " fill="#616161" transform="translate(86.5625,96.9375)"/>
<path d="M0 0 C0.33 0.66 0.66 1.32 1 2 C-0.65 3.98 -2.3 5.96 -4 8 C-4.33 7.01 -4.66 6.02 -5 5 C-3.35 3.35 -1.7 1.7 0 0 Z " fill="#D4ECFB" transform="translate(151,71)"/>
</svg>
